<?xml version="1.0" encoding="UTF-8"?><svg id="Layer_1" xmlns="http://www.w3.org/2000/svg" viewBox="0 0 111.84 64.13"><defs><style>.cls-1{fill-rule:evenodd;}.cls-1,.cls-2{fill:#1bc402;}</style></defs><path class="cls-1" d="m111.22,0H.62c-.35,0-.62.31-.62.67v2.6c0,.36.27.67.62.67h110.6c.35,0,.62-.31.62-.67V.67c0-.36-.27-.67-.62-.67Z"/><path class="cls-1" d="m111.22,55.81H.62c-.35,0-.62.31-.62.67v2.64c0,.36.27.63.62.63h110.6c.35,0,.62-.27.62-.63v-2.64c0-.36-.27-.67-.62-.67Z"/><path class="cls-1" d="m2.3,5.28v49.18h107.19V5.28H2.3Zm7.79,46.36h-3.93V7.83h3.93v43.81Zm7.77,0h-3.93V7.83h3.93v43.81Zm37.8,0h-3.93V7.83h3.93v43.81Zm8.37,0h-3.93V7.83h3.93v43.81Zm9.49,0h-3.93v-17.38h3.93v17.38Zm12.6,0h-3.93v-17.38h3.93v17.38Zm10.1,0h-3.93V7.83h3.93v43.81Zm8.37,0h-3.93V7.83h3.93v43.81Zm-58.34,0h-23.17V12.69h23.17v38.95Zm40.13-20.05h-16.74V11.83h16.74v19.76Z"/><rect class="cls-2" x="2.3" y="61.09" width="107.19" height="3.04"/></svg>